<?xml version="1.0" standalone="no"?>
<!DOCTYPE svg PUBLIC "-//W3C//DTD SVG 20010904//EN"
 "http://www.w3.org/TR/2001/REC-SVG-20010904/DTD/svg10.dtd">
<svg version="1.0" xmlns="http://www.w3.org/2000/svg"
 width="512.000000pt" height="512.000000pt" viewBox="0 0 512.000000 512.000000"
 preserveAspectRatio="xMidYMid meet">
<metadata>
Created by potrace 1.14, written by Peter Selinger 2001-2017
</metadata>
<g transform="translate(0.000000,512.000000) scale(0.100000,-0.100000)"
fill="#000000" stroke="none">
<path d="M4950 5054 c-143 -22 -213 -34 -250 -40 -19 -3 -48 -7 -63 -9 -16 -2
-40 -6 -55 -9 -15 -3 -43 -8 -62 -11 -19 -3 -62 -10 -95 -16 -33 -6 -71 -13
-85 -15 -14 -3 -70 -14 -125 -25 -55 -11 -111 -22 -125 -24 -14 -2 -74 -16
-135 -30 -60 -14 -121 -28 -135 -31 -202 -42 -794 -254 -1075 -384 -266 -123
-596 -299 -724 -386 l-34 -23 -21 27 c-85 112 -275 247 -510 364 -78 38 -149
74 -158 78 -77 41 -396 150 -483 166 -112 21 -141 22 -188 10 -30 -7 -36 -26
-25 -81 24 -113 175 -414 387 -770 23 -38 46 -77 50 -85 5 -8 51 -82 103 -164
51 -82 96 -155 100 -161 4 -6 -7 -26 -24 -45 -162 -182 -331 -473 -418 -717
-31 -89 -33 -91 -68 -98 -78 -15 -403 -130 -498 -177 -201 -98 -234 -179 -101
-242 82 -38 275 -74 485 -90 29 -2 55 -5 56 -7 2 -2 6 -67 9 -144 11 -273 73
-469 212 -680 211 -318 634 -594 1097 -715 74 -19 92 -28 112 -55 14 -18 51
-58 83 -90 183 -184 431 -304 660 -322 l83 -6 -50 54 c-140 149 -215 318 -212
474 3 176 133 429 386 754 125 159 119 144 55 137 -272 -32 -522 -165 -749
-402 -89 -93 -182 -211 -240 -304 -19 -30 -35 -57 -37 -59 -12 -17 -211 182
-300 299 -71 95 -146 239 -163 315 -18 79 -15 183 8 242 42 112 172 245 408
421 116 87 452 312 466 312 1 0 3 -28 4 -63 1 -70 21 -118 59 -143 110 -72
729 -259 960 -290 11 -1 34 -5 50 -9 17 -3 80 -9 142 -12 122 -6 167 4 179 39
26 83 -202 341 -666 754 -19 18 -48 43 -65 57 -16 14 -28 27 -25 30 12 12 390
200 531 264 315 144 365 161 634 213 172 34 263 67 272 100 5 19 16 25 37 21
5 -1 6 15 3 36 -6 36 4 66 59 175 13 25 12 27 -32 48 -26 11 -47 20 -49 18 -1
-2 -12 -27 -25 -55 -24 -54 -39 -64 -59 -40 -6 8 -29 22 -52 32 -39 18 -40 20
-34 54 4 20 9 47 12 60 2 14 6 28 8 32 3 3 -18 11 -45 16 l-50 10 -9 -36 c-5
-20 -12 -48 -15 -63 -4 -20 -11 -26 -25 -23 -11 2 -40 7 -65 10 l-46 7 0 59 0
59 -50 0 -50 0 0 -58 0 -58 -70 -2 -70 -2 0 40 0 40 -50 0 -50 0 0 -45 c0 -40
-3 -45 -22 -46 -13 0 -34 -2 -48 -5 -14 -2 -54 -9 -89 -14 -35 -6 -65 -9 -68
-7 -9 9 42 126 82 187 45 69 130 168 138 160 2 -3 15 -22 29 -42 l24 -37 42
28 42 27 -30 47 -29 47 32 23 c18 14 43 32 57 40 l26 17 28 -65 c15 -36 31
-65 34 -65 13 0 82 36 82 43 0 8 -32 82 -51 119 -7 13 3 22 56 47 35 17 66 31
68 31 3 0 17 -31 32 -69 l27 -69 48 20 48 20 -29 65 c-16 36 -29 66 -29 68 0
1 28 10 62 20 34 9 68 19 75 22 8 3 13 2 12 -3 -2 -5 0 -22 4 -39 4 -16 9 -40
12 -53 11 -59 12 -60 61 -49 l46 11 -6 40 c-3 23 -10 57 -16 76 -5 19 -10 36
-10 37 0 5 112 15 116 10 3 -3 8 -22 10 -43 3 -22 7 -50 9 -64 2 -14 4 -29 4
-33 1 -5 18 -6 39 -3 20 3 43 5 51 6 10 0 12 9 7 33 -3 17 -8 52 -12 77 -3 25
-7 50 -9 56 -2 7 7 28 21 47 28 42 29 46 9 61 -13 9 -10 18 21 61 123 173 192
365 210 588 8 89 19 83 -116 61z"/>
</g>
</svg>
